# xmcd CD database file
#
# Track frame offsets:
#	150
#	22794
#	39997
#	57910
#	78802
#	96560
#	112497
#	124840
#	145247
#	158700
#	171777
#	183847
#	194800
#	211860
#
# Disc length: 2966 seconds
#
# Revision: 7
# Processed by: cddbd v1.5.2PL0 Copyright (c) Steve Scherf et al.
# Submitted via: CDex 1.51
#
DISCID=c00b940e
DTITLE=Charles Aznavour - Jazznavour
DYEAR=1998
DGENRE=Jazz
TTITLE0=J'Aime Paris Au Mois De Mai (En Duo Avec Dianne Reeves)
TTITLE1=Ce Sacre Piano
TTITLE2=De T'Avoir Aimee
TTITLE3=Tu T'Laisses Aller
TTITLE4=Mes Emmerdes
TTITLE5=Yesterday When I Was Young (Hier Encore) (En Duo Avec Dianne Reeves)
TTITLE6=Les Plaisirs Demodes
TTITLE7=Me Voila Seul
TTITLE8=A T'Regarder
TTITLE9=Lucie
TTITLE10=She (Tous Les Visages De L'Amour)
TTITLE11=Dormir Avec Vous Madame
TTITLE12=Au Creux De Mon Epaule
TTITLE13=For Me Formidable
EXTD=YEAR: 1998
EXTT0=
EXTT1=
EXTT2=
EXTT3=
EXTT4=
EXTT5=
EXTT6=
EXTT7=
EXTT8=
EXTT9=
EXTT10=
EXTT11=
EXTT12=
EXTT13=
PLAYORDER=
